<svg xmlns="http://www.w3.org/2000/svg" viewBox="0 0 100 100" width="100" height="100">
  <defs>
    <linearGradient id="bgGrad" x1="0%" y1="0%" x2="100%" y2="100%">
      <stop offset="0%" stop-color="#4f46e5" />
      <stop offset="50%" stop-color="#4338ca" />
      <stop offset="100%" stop-color="#312e81" />
    </linearGradient>
    <filter id="shadow" x="-10%" y="-10%" width="130%" height="130%">
      <feDropShadow dx="0" dy="4" stdDeviation="4" flood-color="#000" flood-opacity="0.5" />
    </filter>
  </defs>
  <rect width="100" height="100" rx="24" fill="url(#bgGrad)" />
  <rect x="2" y="2" width="96" height="96" rx="22" fill="none" stroke="#6366f1" stroke-width="2" stroke-opacity="0.4" />
  <g transform="translate(14, 14) scale(1.6)" filter="url(#shadow)">
    <g fill="none" fill-rule="evenodd" stroke="#ffffff" stroke-linecap="round" stroke-linejoin="round" stroke-width="1.5">
      <path fill="#ffffff" d="M22 10c10.5 1 16.5 8 16 29H15c0-9 10-6.5 8-21"/>
      <path fill="#ffffff" d="M24 18c.38 2.91-5.55 7.37-8 9-3 2-2.82 4.34-5 4-1.04-.94 1.41-3.04 0-3-1 0 .19 1.23-1 2-1 0-4 1-4-4 0-2 6-12 6-12s1.89-1.9 2-3.5c-.73-1-.5-2-.5-3 1-1 3 2.5 3 2.5h2s.78-2 2.5-3c1 0 1 3 1 3"/>
      <path fill="#312e81" stroke="#312e81" d="M9.5 25.5a.5.5 0 1 1-1 0 .5.5 0 1 1 1 0m5.43-9.75a.5 1.5 30 1 1-.86-.5.5 1.5 30 1 1 .86.5"/>
      <path fill="#312e81" stroke="none" d="m24.55 10.4-.45 1.45.5.15c3.15 1 5.65 2.49 7.9 6.75S35.75 29.06 35.25 39l-.05.5h2.25l.05-.5c.5-10.06-.88-16.85-3.25-21.34s-5.79-6.64-9.19-7.16z"/>
    </g>
  </g>
</svg>
